<?xml version="1.0" standalone="no"?>
<!DOCTYPE svg PUBLIC "-//W3C//DTD SVG 20010904//EN"
 "http://www.w3.org/TR/2001/REC-SVG-20010904/DTD/svg10.dtd">
<svg version="1.0" xmlns="http://www.w3.org/2000/svg"
 width="16.000000pt" height="16.000000pt" viewBox="0 0 16.000000 16.000000"
 preserveAspectRatio="xMidYMid meet">
<metadata>
Created by potrace 1.16, written by Peter Selinger 2001-2019
</metadata>
<g transform="translate(0.000000,16.000000) scale(0.100000,-0.100000)"
fill="#000000" stroke="none">
<path d="M0 80 l0 -80 80 0 80 0 0 80 0 80 -80 0 -80 0 0 -80z m88 63 c0 -5 2
-16 7 -27 6 -13 2 -23 -12 -35 -12 -9 -24 -27 -28 -40 -7 -23 -8 -22 -21 15
-14 39 -18 77 -9 85 8 8 65 10 63 2z m49 -45 c-3 -7 -5 -2 -5 12 0 14 2 19 5
13 2 -7 2 -19 0 -25z m-17 -47 c0 -29 -15 -41 -48 -41 -13 0 -14 2 -4 9 8 4
13 10 13 12 0 2 2 14 5 27 9 33 34 28 34 -7z"/>
</g>
</svg>
